<svg xmlns="http://www.w3.org/2000/svg" version="1.1" xmlns:xlink="http://www.w3.org/1999/xlink" xmlns:svgjs="http://svgjs.dev/svgjs" width="1500" height="1500" viewBox="0 0 1500 1500"><rect width="1500" height="1500" fill="#ffffff"></rect><g transform="matrix(0.6666666666666666,0,0,0.6666666666666666,248.0242304570147,169.94372798736435)"><svg viewBox="0 0 243 281" data-background-color="#97978d" preserveAspectRatio="xMidYMid meet" height="1734" width="1500" xmlns="http://www.w3.org/2000/svg" xmlns:xlink="http://www.w3.org/1999/xlink"><g id="tight-bounds" transform="matrix(1,0,0,1,0.4801119989454321,0.5001622529838414)"><svg viewBox="0 0 242.03977600210914 280" height="280" width="242.03977600210914"><g><svg viewBox="0 0 278.2696 321.91191583040074" height="280" width="242.03977600210914"><g><svg viewBox="0 0 278.2696 321.91191583040074" height="321.91191583040074" width="278.2696"><g id="textblocktransform"><svg viewBox="0 0 278.2696 321.91191583040074" height="321.91191583040074" width="278.2696" id="textblock"><g><svg viewBox="0 0 278.2696 278.2696" height="278.2696" width="278.2696"><g transform="matrix(1,0,0,1,89.94321971048298,113.50155942693559)"><svg viewBox="0 0 98.38316057903407 51.26648114612886" height="51.26648114612886" width="98.38316057903407"><g id="icon-0"><svg xmlns="http://www.w3.org/2000/svg" xmlns:xlink="http://www.w3.org/1999/xlink" version="1.1" x="0" y="0" viewBox="0 23.944 100 52.108999999999995" style="enable-background:new 0 0 100 100;" xml:space="preserve" height="51.26648114612886" width="98.38316057903407" class="icon-jxe-0" data-fill-palette-color="accent" id="jxe-0"><g fill="#ffffff" data-fill-palette-color="accent"><polygon points="32.812,54.999 29.642,52.646 24.936,52.174 24.236,53.316 23.283,53 22.816,51.236 21.407,51.138 21.993,49.469    20.818,49.351 19.64,50.297 18.817,49.115 19.523,47.118 22.701,46.646 23.283,48.292 24.112,48.177 24.112,46.646 26.345,43.588    29.168,42.058 32.812,40.416 30.224,34.648 29.049,35.354 28.112,32.768 25.872,32.885 25.293,37.473 24.467,37.592 21.052,33.944    21.758,32.061 25.293,31.357 25.293,26.885 16.465,27.828 11.883,25.122 9.764,27.121 3.996,23.944 0.824,25.826 1.999,27.594    0.703,27.594 0.352,28.886 2.115,29.121 0.352,30.532 0.938,32.531 2.468,32.885 0,34.885 3.881,33.004 5.996,31.823 9.408,33.944    12.115,38.531 12.115,42.648 13.762,45.707 16.465,49.941 19.761,51.113 21.172,51.821 22.816,53.938 23.965,53.76 22.701,55.823    23.757,60.053 25.994,62.051 23.283,72.996 24.23,75.348 26.934,76.053 25.293,74.287 27.522,70.054 32.345,65.937 32.697,64.055    35.052,63.7 37.405,58.879 33.288,56.882  " fill="#000000" data-fill-palette-color="accent"></polygon><polygon points="88.999,55.826 88.747,57.824 87.053,57.209 87.366,56.127 85.514,55.977 83.114,58.213 80.568,59.135    81.191,62.599 80.956,63.287 81.887,63.827 85.662,62.893 87.122,63.742 87.817,63.355 88.28,64.756 90.204,65.297 91.595,64.446    92.365,60.292 90.285,58.213  " fill="#000000" data-fill-palette-color="accent"></polygon><polygon points="79.645,53.897 81.649,54.281 82.577,51.43 82.034,50.964 79.338,52.662  " fill="#000000" data-fill-palette-color="accent"></polygon><polygon points="91.283,55.977 90.593,54.511 87.433,52.973 85.814,53.124 87.893,55.283 89.087,55.367 89.59,54.896  " fill="#000000" data-fill-palette-color="accent"></polygon><polygon points="89.59,35.625 89.054,35.625 88.974,38.399 87.588,41.328 85.814,42.642 85.736,43.795 88.974,41.869    89.127,39.865 90.204,38.863 89.362,38.17 89.818,36.554  " fill="#000000" data-fill-palette-color="accent"></polygon><polygon points="97.916,63.607 98.149,65.766 95.759,68.004 97.303,68.157 98.685,66.073 99.766,64.611 99.073,64.537  " fill="#000000" data-fill-palette-color="accent"></polygon><polygon points="46.392,31.168 46.392,33.412 47.949,32.729 48.388,32.039 46.701,28.795 45.708,29.484 45.769,30.355    44.831,31.484 44.766,32.666 45.893,32.666  " fill="#000000" data-fill-palette-color="accent"></polygon><polygon points="60.492,57.616 60.429,60.115 61.433,60.548 62.429,57.554 62.177,56.308  " fill="#000000" data-fill-palette-color="accent"></polygon><path d="M97.223 31.002L100 29.458 99.229 27.302 78.778 24.417S66.386 25.728 59.552 26.447L53.631 25.356 51.256 26.665 50.322 28.973 49.196 29.85 49.134 31.784 49.759 32.155 51.068 31.409 51.698 33.403 52.817 32.967 53.568 30.969 52.817 30.16 53.506 28.663 54.311 27.662 54.805 27.74 54.344 28.911 53.817 29.288 54.009 29.763 53.973 29.843 54.042 29.85 54.501 30.969 55.813 30.598 56.264 31.127 54.813 31.598 55.129 32.784 54.187 32.466 53.505 34.216 51.067 34.154 50.63 32.906 50.07 33.654 50.258 34.466 49.382 34.53 48.322 35.964 46.388 36.588 46.889 37.65 47.694 38.959 45.14 38.771 45.264 41.27 47.262 41.582 48.571 39.52 50.447 38.583 51.254 39.52 52.375 41.022 53.191 40.08 51.629 39.024 51.565 38.024 52.314 38.397 53.565 39.399 53.503 40.391 54.437 41.581 54.875 40.079 55.375 40.331 56.059 41.518 58.174 41.87 57.83 43.026 57.035 43.502 53.971 42.718 53.2 43.796 51.198 42.485 50.888 41.18 45.956 42.024 43.41 45.108 42.945 49.269 45.571 51.815 50.274 51.505 51.658 55.823 51.123 58.288 53.355 63.684 55.901 63.221 58.442 58.441 59.829 57.362 59.447 54.051 61.914 51.814 62.685 49.115 60.216 50.272 57.696 44.5 58.211 44.412 60.681 49.268 65.462 46.417 63.838 45.185 62.606 45.801 61.834 43.949 62.375 43.644 63.452 44.566 67.158 45.26 68.694 47.112 70.083 50.579 71.166 49.503V48.192L74.169 46.106 75.248 48.423 76.142 48.197 76.327 50.502 77.254 52.197 75.249 51.194 76.716 53.273 78.335 54.819 82.188 55.511 80.108 54.665 78.561 54.124 78.025 51.656 76.789 50.264 76.836 48.873 78.256 50.344 79.643 49.188 78.336 47.26 78.949 46.258 81.803 46.104 83.112 43.717 82.19 41.1 83.346 39.866 84.198 41.022 84.506 42.485 85.507 41.95 85.122 40.329 85.969 39.096 87.358 38.867 88.974 34.394 87.588 33.392 89.513 31.54 92.059 31.693 94.142 30 95.759 29.766 93.14 32.929 93.216 35.702 95.222 33.235 95.144 31.46zM59.495 40.202L58.127 39.832 56.25 40.143 55.814 39.335 56.811 37.586 60.058 39.274zM61.745 41.269L62.051 40.08 61.367 38.336 63.304 37.276V38.21L62.553 38.522 63.182 39.46 63.486 41.395z" fill="#000000" data-fill-palette-color="accent"></path><polygon points="35.535,26.227 33.798,25.754 31.652,28.046 34.413,35.233 35.719,35.554 35.825,33.219 36.707,32.674    36.758,31.787 37.668,30.076 37.034,28.777  " fill="#000000" data-fill-palette-color="accent"></polygon></g></svg></g></svg></g><g id="text-0"><path d="M28.761 110.604l-25.89-8.553 2.261-6.844c0.747-2.263 1.876-3.747 3.385-4.455 1.503-0.709 3.402-0.685 5.696 0.073v0c1.725 0.57 3.119 1.402 4.18 2.496 1.064 1.087 1.639 2.329 1.725 3.724v0l13.528-1.23-1.049 3.176-13.02 1.282-1.124 3.403 11.357 3.752zM16.041 102.795l0.868-2.625c0.463-1.403 0.337-2.654-0.38-3.753-0.716-1.099-1.839-1.901-3.368-2.407v0c-1.454-0.48-2.681-0.468-3.682 0.036-1.001 0.504-1.741 1.482-2.221 2.935v0l-0.867 2.626z" fill="#000000" data-fill-palette-color="primary"></path><path d="M41.183 81.507l-5.6 10.918-24.26-12.445 5.422-10.571 2.354 1.207-3.859 7.524 7.764 3.983 3.13-6.103 2.363 1.212-3.13 6.103 9.425 4.835 4.037-7.871z" fill="#000000" data-fill-palette-color="primary"></path><path d="M48.057 72.084l-21.014-17.374 4.32-5.224c1.506-1.821 3.134-2.85 4.884-3.087 1.745-0.241 3.508 0.374 5.288 1.846v0l10.149 8.391c1.78 1.472 2.713 3.085 2.799 4.84 0.081 1.751-0.621 3.545-2.106 5.384v0zM48.226 67.728l2.112-2.554c0.759-0.918 1.107-1.883 1.044-2.893-0.053-1.011-0.521-1.882-1.403-2.612v0l-11.104-9.18c-0.882-0.729-1.825-1.025-2.828-0.887-1.004 0.128-1.886 0.652-2.645 1.57v0l-2.112 2.554z" fill="#000000" data-fill-palette-color="primary"></path><path d="M63.491 55.576c-0.7 0.625-1.501 1.027-2.402 1.208-0.901 0.18-1.789 0.12-2.663-0.18-0.874-0.299-1.648-0.827-2.321-1.581v0l-1.35-1.512c-0.816-0.914-1.274-1.882-1.376-2.906-0.093-1.023 0.088-1.965 0.542-2.826v0l2.4-4.552-1.216-1.363c-0.417-0.467-0.897-0.725-1.441-0.775-0.549-0.045-1.047 0.132-1.494 0.531v0l-3.277 2.925-1.536-1.721 3.486-3.111c1.063-0.949 2.191-1.389 3.384-1.321 1.194 0.068 2.273 0.643 3.24 1.725v0l10.351 11.597zM62.11 53.624l1.944-1.735-6.097-6.83-1.697 3.241c-0.329 0.641-0.448 1.217-0.36 1.726 0.093 0.514 0.459 1.129 1.098 1.845v0l1.449 1.623c0.47 0.526 1.062 0.8 1.778 0.822 0.715 0.022 1.344-0.209 1.885-0.692z" fill="#000000" data-fill-palette-color="primary"></path><path d="M76.443 45.629c-1.173 0.82-2.347 1.116-3.52 0.888-1.165-0.226-2.164-0.936-2.999-2.131v0l-7.541-10.796-1.924 1.344-1.338-1.916 1.924-1.343-3.368-4.821 1.885-2.741 4.036 5.778 2.554-1.784 1.338 1.915-2.554 1.784 7.696 11.017c0.358 0.513 0.794 0.834 1.306 0.963 0.522 0.131 1.028 0.025 1.519-0.318v0l0.958-0.669 1.338 1.915z" fill="#000000" data-fill-palette-color="primary"></path><path d="M84.732 40.823c-0.822 0.452-1.693 0.666-2.611 0.639-0.919-0.026-1.77-0.283-2.555-0.771-0.785-0.487-1.421-1.174-1.909-2.06v0l-0.977-1.776c-0.59-1.073-0.821-2.12-0.691-3.141 0.139-1.018 0.525-1.896 1.16-2.633v0l3.359-3.899-0.881-1.601c-0.302-0.548-0.712-0.907-1.231-1.077-0.525-0.167-1.05-0.106-1.575 0.182v0l-3.849 2.118-1.112-2.02 4.094-2.253c1.248-0.687 2.446-0.864 3.594-0.53 1.148 0.333 2.072 1.135 2.772 2.406v0l7.494 13.619zM83.823 38.611l2.283-1.256-4.414-8.021-2.379 2.779c-0.464 0.552-0.709 1.085-0.737 1.602-0.024 0.522 0.195 1.203 0.657 2.043v0l1.049 1.907c0.34 0.618 0.856 1.018 1.549 1.199 0.692 0.181 1.356 0.097 1.992-0.253z" fill="#000000" data-fill-palette-color="primary"></path><path d="M107.861 31.651c-3.34 0.98-5.797 0.881-7.369-0.295-1.579-1.174-2.705-2.907-3.377-5.2v0c-0.388-1.322-0.368-2.615 0.059-3.877 0.429-1.256 1.074-2.309 1.935-3.159v0c-1.231-0.319-2.266-0.917-3.106-1.794-0.834-0.879-1.439-1.964-1.818-3.254v0c-0.614-2.095-0.446-3.851 0.505-5.267 0.951-1.416 2.595-2.467 4.933-3.153v0l6.39-1.874 0.658 2.242-5.681 1.666c-3.334 0.978-4.606 2.814-3.816 5.51v0c0.438 1.495 1.183 2.545 2.236 3.152 1.06 0.612 2.325 0.702 3.793 0.271v0l3.066-0.899-1.261-4.301 2.989-0.877 1.261 4.302 2.999-0.88 0.657 2.242-2.998 0.88 3.77 12.857zM107.539 29.311l2.5-0.734-3.112-10.615-2.913 0.854c-1.443 0.423-2.575 1.202-3.393 2.337-0.821 1.128-0.982 2.542-0.483 4.241v0c0.539 1.839 1.453 3.087 2.741 3.743 1.286 0.649 2.84 0.707 4.66 0.174z" fill="#000000" data-fill-palette-color="primary"></path><path d="M127.785 27.659l-1.688-27.214 6.766-0.42c2.358-0.146 4.222 0.338 5.592 1.454 1.369 1.109 2.125 2.816 2.268 5.121v0l0.815 13.144c0.143 2.305-0.397 4.089-1.618 5.352-1.223 1.256-3.012 1.971-5.369 2.143v0zM131.079 24.804l3.308-0.205c1.189-0.074 2.131-0.479 2.826-1.216 0.702-0.73 1.017-1.667 0.946-2.809v0l-0.892-14.38c-0.071-1.143-0.5-2.033-1.286-2.671-0.78-0.645-1.765-0.931-2.954-0.857v0l-3.308 0.205z" fill="#000000" data-fill-palette-color="primary"></path><path d="M150.301 27.63c-1.425-0.128-2.52-0.657-3.286-1.588-0.759-0.924-1.073-2.111-0.943-3.563v0l0.927-10.322c0.151-1.677 0.733-2.955 1.748-3.833 1.02-0.871 2.449-1.223 4.285-1.058v0c1.836 0.165 3.169 0.766 3.998 1.802 0.835 1.044 1.177 2.405 1.027 4.082v0l-0.161 1.79c-0.098 1.087-0.483 1.878-1.155 2.372-0.673 0.501-1.526 0.849-2.56 1.043v0l-4.689 0.872-0.341 3.799c-0.056 0.623 0.084 1.15 0.419 1.581 0.342 0.438 0.811 0.684 1.407 0.738v0l4.186 0.376-0.209 2.327zM149.711 16.781l2.426-0.444c0.869-0.156 1.459-0.28 1.768-0.372 0.308-0.086 0.526-0.24 0.653-0.463 0.121-0.23 0.205-0.613 0.253-1.15v0l0.192-2.138c0.074-0.829-0.083-1.454-0.472-1.877-0.389-0.429-0.958-0.678-1.708-0.744v0c-0.729-0.066-1.338 0.09-1.826 0.467-0.488 0.371-0.766 0.944-0.836 1.719v0z" fill="#000000" data-fill-palette-color="primary"></path><path d="M166.15 30.315l-3.08-0.683-0.138-20.78 3.148 0.699-0.599 16.587 6.419-15.297 3.158 0.7z" fill="#000000" data-fill-palette-color="primary"></path><path d="M177.856 33.8c-1.351-0.472-2.283-1.253-2.798-2.343-0.51-1.081-0.525-2.31-0.044-3.686v0l3.421-9.782c0.556-1.59 1.433-2.686 2.631-3.29 1.202-0.595 2.674-0.588 4.414 0.021v0c1.74 0.609 2.886 1.517 3.436 2.725 0.555 1.216 0.554 2.619-0.001 4.209v0l-0.594 1.696c-0.36 1.03-0.927 1.703-1.7 2.018-0.775 0.321-1.687 0.45-2.736 0.386v0l-4.761-0.3-1.259 3.6c-0.207 0.591-0.2 1.136 0.021 1.636 0.224 0.508 0.619 0.862 1.184 1.059v0l3.967 1.388-0.771 2.205zM179.935 23.136l2.46 0.162c0.881 0.061 1.483 0.085 1.806 0.071 0.32-0.008 0.569-0.104 0.746-0.289 0.173-0.193 0.349-0.544 0.527-1.054v0l0.708-2.026c0.275-0.785 0.275-1.431 0-1.935-0.272-0.511-0.764-0.891-1.473-1.14v0c-0.691-0.242-1.319-0.239-1.886 0.007-0.563 0.24-0.974 0.728-1.23 1.463v0z" fill="#000000" data-fill-palette-color="primary"></path><path d="M190.416 38.961l-2.834-1.293 11.315-24.807 2.834 1.292z" fill="#000000" data-fill-palette-color="primary"></path><path d="M199.195 44.346c-1.566-0.934-2.543-2.052-2.93-3.352-0.383-1.306-0.157-2.659 0.678-4.06v0l5.31-8.9c0.839-1.406 1.922-2.248 3.251-2.525 1.331-0.283 2.78 0.043 4.346 0.978v0c1.56 0.931 2.532 2.05 2.916 3.355 0.387 1.3 0.161 2.654-0.679 4.06v0l-5.309 8.9c-0.836 1.4-1.919 2.242-3.251 2.525-1.328 0.277-2.772-0.05-4.332-0.981zM200.433 42.271c0.709 0.423 1.395 0.553 2.057 0.391 0.657-0.166 1.218-0.638 1.681-1.416v0l5.31-8.899c0.467-0.783 0.618-1.503 0.452-2.16-0.172-0.66-0.612-1.202-1.321-1.626v0c-0.714-0.426-1.4-0.556-2.057-0.39-0.663 0.163-1.228 0.635-1.695 1.419v0l-5.31 8.899c-0.464 0.777-0.61 1.496-0.438 2.157 0.166 0.657 0.606 1.199 1.321 1.625z" fill="#000000" data-fill-palette-color="primary"></path><path d="M203.85 54.633l16.427-20.778 4.95 3.913c1.123 0.887 1.784 2.009 1.986 3.364 0.205 1.35-0.128 2.576-0.999 3.678v0l-6.495 8.216c-0.871 1.102-1.98 1.71-3.327 1.825-1.342 0.11-2.575-0.279-3.697-1.167v0l-2.538-2.006-3.863 4.887zM211.582 49.876l2.02 1.598c0.569 0.45 1.21 0.643 1.923 0.578 0.713-0.064 1.296-0.384 1.75-0.958v0l6.495-8.216c0.45-0.569 0.624-1.208 0.523-1.916-0.098-0.714-0.431-1.295-1.001-1.745v0l-2.02-1.598z" fill="#000000" data-fill-palette-color="primary"></path><path d="M219.263 59.672l15.066-13.541 1.615 1.797-0.605 1.014 1.409 0.881c0.982 0.585 1.739 1.064 2.271 1.436 0.531 0.382 0.988 0.786 1.371 1.212v0c0.747 0.832 0.902 1.74 0.462 2.725v0c0.678 0.366 1.593 0.922 2.746 1.666 1.158 0.74 1.946 1.343 2.364 1.809v0c0.623 0.693 0.843 1.426 0.661 2.198-0.173 0.773-0.646 1.507-1.418 2.201v0l-12.661 11.379-2.082-2.316 11.903-10.699c0.564-0.507 0.92-0.898 1.066-1.173 0.152-0.279 0.089-0.573-0.186-0.879v0c-0.138-0.153-1.402-0.937-3.791-2.352v0l-12.483 11.219-2.082-2.317 11.903-10.698c0.564-0.507 0.92-0.898 1.067-1.173 0.156-0.274 0.094-0.568-0.187-0.88v0c-0.138-0.153-1.419-0.957-3.844-2.41v0l-12.483 11.218z" fill="#000000" data-fill-palette-color="primary"></path><path d="M236.898 81.657c-0.76-1.213-1-2.405-0.721-3.577 0.277-1.163 1.033-2.131 2.268-2.905v0l8.784-5.501c1.427-0.894 2.797-1.202 4.109-0.924 1.31 0.287 2.455 1.211 3.434 2.774v0c0.979 1.563 1.305 2.987 0.98 4.274-0.327 1.296-1.204 2.391-2.631 3.286v0l-1.523 0.953c-0.925 0.579-1.788 0.751-2.588 0.514-0.806-0.234-1.599-0.703-2.378-1.409v0l-3.529-3.209-3.233 2.025c-0.53 0.332-0.866 0.762-1.006 1.29-0.143 0.537-0.055 1.059 0.263 1.567v0l2.231 3.562-1.98 1.24zM245.184 74.63l1.82 1.664c0.65 0.598 1.105 0.993 1.365 1.183 0.255 0.194 0.509 0.274 0.763 0.241 0.256-0.043 0.613-0.207 1.07-0.493v0l1.819-1.14c0.705-0.442 1.108-0.945 1.209-1.511 0.107-0.569-0.04-1.173-0.438-1.81v0c-0.389-0.621-0.881-1.011-1.477-1.173-0.59-0.165-1.215-0.04-1.875 0.373v0z" fill="#000000" data-fill-palette-color="primary"></path><path d="M241.84 90.45l18.373-8.532 1.018 2.191-0.876 0.792 1.089 1.256c0.768 0.847 1.351 1.526 1.751 2.038 0.396 0.521 0.714 1.041 0.955 1.56v0c0.392 0.845 0.387 1.607-0.017 2.286-0.401 0.67-1.072 1.224-2.013 1.662v0l-15.44 7.169-1.311-2.825 14.515-6.741c0.688-0.32 1.143-0.589 1.363-0.809 0.23-0.217 0.256-0.515 0.08-0.895v0c-0.087-0.187-1.071-1.319-2.953-3.396v0l-15.222 7.069z" fill="#000000" data-fill-palette-color="primary"></path><path d="M249.812 110.89c-0.43-1.365-0.361-2.573 0.208-3.624 0.564-1.043 1.542-1.784 2.932-2.223v0l12.56-3.958-0.706-2.238 2.229-0.702 0.705 2.237 5.608-1.767 2.051 2.619-6.723 2.119 0.937 2.971-2.229 0.703-0.936-2.971-12.817 4.039c-0.597 0.188-1.034 0.507-1.31 0.958-0.281 0.459-0.332 0.973-0.152 1.544v0l0.351 1.115-2.228 0.702z" fill="#000000" data-fill-palette-color="primary"></path><path d="M9.529 181.025l25.89-8.552 2.261 6.844c0.747 2.263 0.726 4.127-0.066 5.595-0.785 1.465-2.324 2.576-4.618 3.334v0c-1.725 0.57-3.34 0.732-4.845 0.486-1.502-0.24-2.703-0.894-3.603-1.964v0l-10.134 9.046-1.049-3.176 9.694-8.785-1.124-3.404-11.357 3.752zM24.397 179.72l0.867 2.626c0.463 1.403 1.31 2.333 2.54 2.789 1.23 0.456 2.61 0.431 4.14-0.074v0c1.454-0.48 2.432-1.221 2.936-2.221 0.504-1.001 0.515-2.228 0.035-3.682v0l-0.868-2.626z" fill="#000000" data-fill-palette-color="primary"></path><path d="M23.162 213.013l-5.6-10.917 24.26-12.445 5.423 10.571-2.354 1.208-3.86-7.525-7.764 3.983 3.13 6.103-2.362 1.212-3.131-6.103-9.425 4.835 4.037 7.871z" fill="#000000" data-fill-palette-color="primary"></path><path d="M32.447 226.098l21.014-17.374 4.32 5.224c1.506 1.821 2.21 3.613 2.114 5.377-0.091 1.759-1.027 3.375-2.807 4.847v0l-10.149 8.391c-1.78 1.472-3.54 2.085-5.28 1.84-1.735-0.25-3.366-1.276-4.892-3.081v0zM36.694 227.082l2.112 2.554c0.759 0.918 1.641 1.442 2.645 1.57 1.003 0.138 1.946-0.158 2.829-0.888v0l11.103-9.18c0.882-0.729 1.35-1.6 1.404-2.611 0.063-1.01-0.285-1.975-1.045-2.893v0l-2.112-2.554z" fill="#000000" data-fill-palette-color="primary"></path><path d="M50.003 244.809c-0.7-0.625-1.19-1.375-1.471-2.25-0.281-0.875-0.322-1.764-0.123-2.666 0.199-0.902 0.635-1.731 1.309-2.485v0l1.349-1.512c0.816-0.914 1.726-1.479 2.733-1.696 1.006-0.208 1.963-0.135 2.869 0.219v0l4.794 1.87 1.217-1.363c0.417-0.467 0.619-0.973 0.606-1.519-0.017-0.551-0.249-1.025-0.696-1.424v0l-3.277-2.926 1.536-1.72 3.486 3.111c1.063 0.949 1.628 2.02 1.695 3.213 0.068 1.194-0.382 2.332-1.348 3.414v0l-10.351 11.597zM51.787 243.216l1.944 1.735 6.096-6.83-3.412-1.319c-0.674-0.254-1.26-0.308-1.756-0.162-0.501 0.151-1.07 0.584-1.708 1.299v0l-1.449 1.623c-0.47 0.526-0.675 1.146-0.616 1.86 0.059 0.713 0.36 1.311 0.901 1.794z" fill="#000000" data-fill-palette-color="primary"></path><path d="M64.844 256.251c-1.173-0.82-1.855-1.819-2.045-2.999-0.189-1.171 0.134-2.354 0.969-3.55v0l7.541-10.795-1.923-1.344 1.338-1.915 1.923 1.344 3.368-4.821 3.222 0.826-4.036 5.778 2.554 1.784-1.338 1.915-2.554-1.783-7.696 11.016c-0.358 0.513-0.51 1.032-0.455 1.558 0.057 0.535 0.331 0.974 0.822 1.317v0l0.958 0.669-1.338 1.915z" fill="#000000" data-fill-palette-color="primary"></path><path d="M74.967 262.198c-0.822-0.452-1.468-1.074-1.937-1.864-0.469-0.79-0.708-1.647-0.716-2.571-0.008-0.924 0.232-1.829 0.719-2.715v0l0.977-1.775c0.59-1.073 1.352-1.828 2.283-2.265 0.934-0.428 1.883-0.571 2.846-0.429v0l5.091 0.751 0.881-1.601c0.302-0.548 0.385-1.087 0.251-1.617-0.14-0.533-0.472-0.944-0.997-1.232v0l-3.848-2.118 1.112-2.02 4.093 2.252c1.248 0.687 2.038 1.604 2.372 2.753 0.333 1.148 0.15 2.358-0.55 3.629v0l-7.495 13.619zM76.349 260.246l2.283 1.256 4.414-8.021-3.621-0.522c-0.714-0.097-1.297-0.018-1.748 0.235-0.454 0.259-0.912 0.809-1.374 1.648v0l-1.049 1.907c-0.34 0.618-0.402 1.268-0.184 1.95 0.217 0.682 0.644 1.198 1.279 1.547z" fill="#000000" data-fill-palette-color="primary"></path><path d="M102.162 273.061c-3.34-0.98-5.355-2.389-6.044-4.228-0.695-1.841-0.706-3.908-0.033-6.2v0c0.388-1.322 1.102-2.399 2.144-3.232 1.04-0.826 2.151-1.363 3.334-1.612v0c-0.864-0.933-1.412-1.996-1.646-3.188-0.227-1.19-0.151-2.43 0.228-3.721v0c0.614-2.095 1.704-3.482 3.269-4.16 1.565-0.678 3.517-0.675 5.855 0.011v0l6.39 1.874-0.657 2.241-5.682-1.666c-3.334-0.978-5.396-0.119-6.186 2.577v0c-0.438 1.495-0.379 2.781 0.179 3.86 0.562 1.087 1.578 1.846 3.046 2.278v0l3.066 0.899 1.262-4.302 2.989 0.876-1.262 4.302 2.999 0.879-0.657 2.242-2.999-0.879-3.77 12.857zM103.154 270.917l2.501 0.734 3.113-10.616-2.913-0.854c-1.443-0.423-2.816-0.378-4.118 0.135-1.3 0.507-2.199 1.609-2.697 3.308v0c-0.539 1.839-0.444 3.383 0.286 4.631 0.732 1.241 2.008 2.129 3.828 2.662z" fill="#000000" data-fill-palette-color="primary"></path><path d="M126.531 277.832l1.688-27.213 6.766 0.419c2.358 0.146 4.148 0.857 5.369 2.134 1.222 1.269 1.761 3.057 1.618 5.362v0l-0.815 13.143c-0.143 2.305-0.899 4.009-2.267 5.111-1.368 1.096-3.232 1.583-5.593 1.464v0zM130.153 275.406l3.308 0.205c1.189 0.074 2.174-0.212 2.954-0.857 0.786-0.638 1.215-1.528 1.286-2.671v0l0.892-14.379c0.071-1.143-0.245-2.079-0.946-2.81-0.695-0.737-1.636-1.142-2.826-1.215v0l-3.308-0.205z" fill="#000000" data-fill-palette-color="primary"></path><path d="M152.113 277.819c-1.425 0.128-2.597-0.198-3.516-0.977-0.912-0.774-1.432-1.886-1.563-3.338v0l-0.927-10.322c-0.151-1.677 0.195-3.038 1.036-4.083 0.849-1.039 2.192-1.64 4.028-1.805v0c1.836-0.165 3.255 0.189 4.256 1.061 1.008 0.878 1.587 2.156 1.737 3.834v0l0.161 1.789c0.098 1.087-0.14 1.934-0.714 2.541-0.573 0.613-1.351 1.107-2.333 1.482v0l-4.459 1.694 0.342 3.798c0.056 0.623 0.287 1.117 0.694 1.482 0.414 0.37 0.92 0.529 1.516 0.475v0l4.187-0.376 0.209 2.327zM149.6 267.249l2.307-0.869c0.828-0.308 1.385-0.535 1.673-0.682 0.288-0.14 0.475-0.33 0.56-0.571 0.078-0.248 0.093-0.64 0.045-1.177v0l-0.192-2.138c-0.074-0.829-0.341-1.416-0.8-1.763-0.459-0.353-1.064-0.496-1.813-0.428v0c-0.729 0.066-1.3 0.327-1.713 0.785-0.414 0.452-0.586 1.065-0.517 1.841v0z" fill="#000000" data-fill-palette-color="primary"></path><path d="M170.534 274.735l-3.08 0.682-8.908-18.774 3.149-0.698 6.467 15.286-0.648-16.576 3.158-0.7z" fill="#000000" data-fill-palette-color="primary"></path><path d="M184.542 270.595c-1.351 0.472-2.567 0.443-3.649-0.089-1.073-0.527-1.85-1.479-2.331-2.855v0l-3.421-9.782c-0.556-1.59-0.553-2.994 0.008-4.212 0.57-1.215 1.724-2.126 3.465-2.735v0c1.74-0.609 3.202-0.612 4.386-0.011 1.192 0.606 2.066 1.703 2.621 3.293v0l0.593 1.697c0.36 1.03 0.336 1.91-0.071 2.637-0.406 0.734-1.039 1.403-1.9 2.008v0l-3.91 2.732 1.259 3.6c0.207 0.591 0.552 1.013 1.035 1.266 0.492 0.258 1.021 0.288 1.586 0.091v0l3.968-1.388 0.771 2.206zM179.522 260.959l2.025-1.406c0.727-0.501 1.213-0.858 1.456-1.07 0.245-0.206 0.38-0.436 0.404-0.691 0.015-0.259-0.066-0.643-0.245-1.152v0l-0.708-2.026c-0.275-0.785-0.677-1.29-1.206-1.514-0.532-0.23-1.153-0.221-1.863 0.027v0c-0.691 0.242-1.181 0.635-1.47 1.181-0.291 0.539-0.308 1.176-0.051 1.911v0z" fill="#000000" data-fill-palette-color="primary"></path><path d="M198.821 264.743l-2.834 1.292-11.315-24.807 2.835-1.293z" fill="#000000" data-fill-palette-color="primary"></path><path d="M209.848 258.787c-1.566 0.934-3.013 1.263-4.341 0.985-1.331-0.283-2.415-1.125-3.25-2.525v0l-5.31-8.9c-0.839-1.406-1.065-2.759-0.678-4.059 0.383-1.306 1.358-2.426 2.924-3.361v0c1.56-0.931 3.006-1.255 4.338-0.972 1.328 0.277 2.411 1.119 3.25 2.525v0l5.31 8.9c0.836 1.4 1.062 2.754 0.678 4.06-0.387 1.3-1.36 2.416-2.921 3.347zM208.61 256.712c0.709-0.423 1.149-0.965 1.321-1.625 0.166-0.657 0.017-1.374-0.447-2.152v0l-5.309-8.9c-0.467-0.783-1.029-1.258-1.687-1.423-0.663-0.163-1.349-0.032-2.057 0.39v0c-0.714 0.426-1.155 0.968-1.321 1.625-0.172 0.66-0.024 1.382 0.443 2.165v0l5.31 8.9c0.464 0.777 1.027 1.247 1.69 1.41 0.657 0.166 1.343 0.036 2.057-0.39z" fill="#000000" data-fill-palette-color="primary"></path><path d="M224.139 256.306l-16.427-20.778 4.95-3.914c1.123-0.887 2.366-1.273 3.731-1.155 1.361 0.112 2.477 0.719 3.348 1.82v0l6.496 8.216c0.871 1.102 1.207 2.321 1.008 3.657-0.203 1.331-0.866 2.441-1.989 3.329v0l-2.537 2.006 3.863 4.887zM221.295 247.685l2.02-1.597c0.569-0.45 0.905-1.029 1.007-1.737 0.102-0.708-0.074-1.35-0.529-1.924v0l-6.495-8.216c-0.45-0.569-1.031-0.886-1.744-0.951-0.717-0.07-1.36 0.121-1.929 0.571v0l-2.021 1.597z" fill="#000000" data-fill-palette-color="primary"></path><path d="M234.327 239.142l-15.066-13.541 1.615-1.797 1.072 0.494 0.727-1.495c0.477-1.039 0.873-1.842 1.186-2.41 0.323-0.569 0.676-1.066 1.059-1.492v0c0.747-0.832 1.634-1.082 2.66-0.749v0c0.292-0.713 0.747-1.682 1.365-2.908 0.613-1.23 1.129-2.077 1.547-2.543v0c0.623-0.693 1.328-0.99 2.116-0.89 0.787 0.09 1.567 0.482 2.339 1.176v0l12.661 11.379-2.082 2.316-11.903-10.698c-0.564-0.507-0.991-0.819-1.28-0.935-0.294-0.121-0.579-0.028-0.855 0.278v0c-0.138 0.153-0.783 1.493-1.935 4.02v0l12.482 11.219-2.082 2.317-11.903-10.698c-0.564-0.507-0.991-0.819-1.28-0.936-0.289-0.126-0.574-0.033-0.855 0.279v0c-0.138 0.153-0.801 1.513-1.988 4.079v0l12.482 11.219z" fill="#000000" data-fill-palette-color="primary"></path><path d="M254.064 214.369c-0.76 1.213-1.727 1.95-2.904 2.21-1.167 0.259-2.368 0.001-3.604-0.772v0l-8.783-5.501c-1.427-0.894-2.302-1.992-2.626-3.293-0.314-1.304 0.018-2.737 0.996-4.3v0c0.979-1.563 2.118-2.479 3.418-2.749 1.309-0.272 2.677 0.039 4.104 0.933v0l1.523 0.954c0.925 0.579 1.456 1.281 1.592 2.104 0.142 0.827 0.065 1.745-0.229 2.755v0l-1.346 4.575 3.233 2.025c0.53 0.332 1.064 0.446 1.599 0.342 0.545-0.106 0.977-0.413 1.296-0.921v0l2.23-3.562 1.981 1.24zM244.124 209.982l0.702-2.364c0.255-0.846 0.411-1.427 0.469-1.744 0.063-0.314 0.024-0.578-0.117-0.792-0.15-0.212-0.454-0.461-0.911-0.747v0l-1.819-1.139c-0.705-0.442-1.334-0.584-1.887-0.429-0.559 0.153-1.038 0.548-1.438 1.185v0c-0.389 0.621-0.525 1.234-0.41 1.841 0.11 0.603 0.494 1.111 1.155 1.523v0z" fill="#000000" data-fill-palette-color="primary"></path><path d="M260.21 203.357l-18.372-8.532 1.017-2.192 1.171 0.159 0.256-1.643c0.152-1.133 0.295-2.017 0.428-2.652 0.142-0.638 0.334-1.217 0.575-1.736v0c0.392-0.845 0.978-1.333 1.758-1.463 0.771-0.127 1.627 0.029 2.568 0.467v0l15.439 7.169-1.311 2.826-14.516-6.741c-0.688-0.32-1.188-0.493-1.498-0.52-0.314-0.036-0.559 0.137-0.735 0.517v0c-0.087 0.187-0.317 1.669-0.689 4.447v0l15.221 7.069z" fill="#000000" data-fill-palette-color="primary"></path><path d="M269.129 180.474c-0.43 1.365-1.18 2.315-2.248 2.851-1.061 0.531-2.286 0.577-3.677 0.139v0l-12.56-3.959-0.705 2.238-2.228-0.702 0.705-2.238-5.608-1.768-0.178-3.322 6.723 2.119 0.936-2.971 2.228 0.702-0.936 2.971 12.817 4.04c0.597 0.188 1.138 0.177 1.622-0.033 0.493-0.214 0.83-0.607 1.01-1.179v0l0.351-1.114 2.228 0.703z" fill="#000000" data-fill-palette-color="primary"></path><path d="M3.731 142.638c0-5.761 4.67-10.431 10.431-10.431 5.761 0 10.431 4.67 10.432 10.431 0 5.761-4.67 10.431-10.432 10.431-5.761 0-10.431-4.67-10.431-10.431z" fill="#000000" data-fill-palette-color="primary"></path><path d="M253.776 142.638c0-5.761 4.67-10.431 10.431-10.431 5.761 0 10.431 4.67 10.432 10.431 0 5.761-4.67 10.431-10.432 10.431-5.761 0-10.431-4.67-10.431-10.431z" fill="#000000" data-fill-palette-color="primary"></path></g><g id="text-1"></g></svg></g><g transform="matrix(1,0,0,1,53.1494936,295.17267753569814)"><svg viewBox="0 0 171.97061280000003 26.739238294702588" height="26.739238294702588" width="171.97061280000003"><g transform="matrix(1,0,0,1,0,0)"><svg width="171.97061280000003" viewBox="1 -35 276.51 43" height="26.739238294702588" data-palette-color="#ffffff"><path d="M12.4 0L8 0 8-31.7 1-31.7 1-35 19.4-35 19.4-31.7 12.4-31.7 12.4 0ZM23.4 0L23.4-35 27.4-35 27.4-24.65 29.6-25.3Q31.65-25.9 32.62-26.13 33.6-26.35 34.65-26.35L34.65-26.35Q36.45-26.35 37.3-25.1 38.15-23.85 38.15-21.85L38.15-21.85 38.15 0 34.15 0 34.15-20.55Q34.15-22 33.95-22.58 33.75-23.15 32.95-23.15L32.95-23.15Q32.55-23.15 27.4-21.55L27.4-21.55 27.4 0 23.4 0ZM49.4 0Q46.65 0 45.02-1.65 43.4-3.3 43.4-6.1L43.4-6.1 43.4-19.4Q43.4-22.65 45.2-24.5 47-26.35 50.55-26.35L50.55-26.35Q54.1-26.35 55.87-24.5 57.65-22.65 57.65-19.4L57.65-19.4 57.65-17.1Q57.65-15 56.45-13.93 55.25-12.85 53.3-12.3L53.3-12.3 47.4-10.65 47.4-5.75Q47.4-4.55 48.12-3.78 48.85-3 50-3L50-3 55.4-3 55.4 0 49.4 0ZM47.4-13.8L50.45-14.65Q52.1-15.1 52.67-15.33 53.25-15.55 53.45-16 53.65-16.45 53.65-17.5L53.65-17.5 53.65-20.25Q53.65-21.85 52.82-22.6 52-23.35 50.55-23.35L50.55-23.35Q49.15-23.35 48.27-22.55 47.4-21.75 47.4-20.25L47.4-20.25 47.4-13.8ZM75.99 0L71.89 0 67.14-26 71.14-26 74.04-4.2 76.39-19.35 81.49-19.35 83.84-4.2 86.74-26 90.74-26 85.99 0 81.89 0 78.94-15.65 75.99 0ZM100.84 0.35Q97.34 0.35 95.41-1.43 93.49-3.2 93.49-6.35L93.49-6.35 93.49-19.65Q93.49-22.8 95.41-24.58 97.34-26.35 100.84-26.35L100.84-26.35Q104.34-26.35 106.26-24.58 108.19-22.8 108.19-19.65L108.19-19.65 108.19-6.35Q108.19-3.2 106.26-1.43 104.34 0.35 100.84 0.35L100.84 0.35ZM100.84-2.75Q102.44-2.75 103.36-3.68 104.29-4.6 104.29-6.35L104.29-6.35 104.29-19.65Q104.29-21.4 103.36-22.33 102.44-23.25 100.84-23.25L100.84-23.25Q99.24-23.25 98.31-22.33 97.39-21.4 97.39-19.65L97.39-19.65 97.39-6.35Q97.39-4.6 98.31-3.68 99.24-2.75 100.84-2.75L100.84-2.75ZM113.19 0L113.19-26 116.29-26 116.74-24.15 117.99-24.75Q119.59-25.55 120.66-25.95 121.74-26.35 122.84-26.35L122.84-26.35 122.84-23.4Q122.19-23.4 121.09-23.03 119.99-22.65 117.19-21.3L117.19-21.3 117.19 0 113.19 0ZM130.63 0L126.63 0 126.63-35 130.63-35 130.63 0ZM143.18 0Q140.03 0 138.08-1.85 136.13-3.7 136.13-6.8L136.13-6.8 136.13-19.25Q136.13-21.4 137.31-22.9 138.48-24.4 140.23-24.95L140.23-24.95 146.93-27.3 146.93-35 150.93-35 150.93 0 143.18 0ZM144.03-3L146.93-3 146.93-24 142.48-22.5Q141.18-22.1 140.66-21.23 140.13-20.35 140.13-18.45L140.13-18.45 140.13-6.8Q140.13-5 141.18-4 142.23-3 144.03-3L144.03-3ZM168.43-30.25L164.43-30.25 164.43-34.25 168.43-34.25 168.43-30.25ZM168.43 0L164.43 0 164.43-26 168.43-26 168.43 0ZM172.92 0L172.92-3 177.17-3Q179.32-3 180.3-4.17 181.27-5.35 181.27-7.25L181.27-7.25Q181.27-8.75 180.37-9.8 179.47-10.85 177.67-12.25L177.67-12.25Q176.12-13.5 175.2-14.43 174.27-15.35 173.6-16.73 172.92-18.1 172.92-19.9L172.92-19.9Q172.92-22.55 174.7-24.28 176.47-26 179.47-26L179.47-26 183.82-26 183.82-23 180.22-23Q176.67-23 176.67-19.65L176.67-19.65Q176.67-18.35 177.47-17.4 178.27-16.45 179.97-15.15L179.97-15.15Q181.52-13.95 182.52-12.98 183.52-12 184.22-10.53 184.92-9.05 184.92-7.05L184.92-7.05Q184.92-3.5 183.05-1.75 181.17 0 177.77 0L177.77 0 172.92 0ZM196.77 8L196.77 5 198.32 5Q199.67 5 200.77 3.73 201.87 2.45 201.87-0.05L201.87-0.05 194.92-26 199.07-26 203.42-4.9 206.92-26 210.87-26 204.77 3Q203.72 8 198.97 8L198.97 8 196.77 8ZM220.97 0.35Q217.47 0.35 215.54-1.43 213.62-3.2 213.62-6.35L213.62-6.35 213.62-19.65Q213.62-22.8 215.54-24.58 217.47-26.35 220.97-26.35L220.97-26.35Q224.47-26.35 226.39-24.58 228.32-22.8 228.32-19.65L228.32-19.65 228.32-6.35Q228.32-3.2 226.39-1.43 224.47 0.35 220.97 0.35L220.97 0.35ZM220.97-2.75Q222.57-2.75 223.49-3.68 224.42-4.6 224.42-6.35L224.42-6.35 224.42-19.65Q224.42-21.4 223.49-22.33 222.57-23.25 220.97-23.25L220.97-23.25Q219.37-23.25 218.44-22.33 217.52-21.4 217.52-19.65L217.52-19.65 217.52-6.35Q217.52-4.6 218.44-3.68 219.37-2.75 220.97-2.75L220.97-2.75ZM236.36 0.35Q234.56 0.35 233.69-0.9 232.81-2.15 232.81-4.15L232.81-4.15 232.81-26 236.81-26 236.81-5.45Q236.81-4.05 237.01-3.45 237.21-2.85 237.96-2.85L237.96-2.85Q238.31-2.85 243.61-4.35L243.61-4.35 243.61-26 247.61-26 247.61 0 244.76 0 244.01-1.7Q243.21-1.4 242.81-1.3L242.81-1.3Q240.46-0.45 239.01-0.05 237.56 0.35 236.36 0.35L236.36 0.35ZM253.61 0L253.61-26 256.71-26 257.16-24.15 258.41-24.75Q260.01-25.55 261.09-25.95 262.16-26.35 263.26-26.35L263.26-26.35 263.26-23.4Q262.61-23.4 261.51-23.03 260.41-22.65 257.61-21.3L257.61-21.3 257.61 0 253.61 0ZM265.51 0L265.51-3 269.76-3Q271.91-3 272.88-4.17 273.86-5.35 273.86-7.25L273.86-7.25Q273.86-8.75 272.96-9.8 272.06-10.85 270.26-12.25L270.26-12.25Q268.71-13.5 267.78-14.43 266.86-15.35 266.18-16.73 265.51-18.1 265.51-19.9L265.51-19.9Q265.51-22.55 267.28-24.28 269.06-26 272.06-26L272.06-26 276.41-26 276.41-23 272.81-23Q269.26-23 269.26-19.65L269.26-19.65Q269.26-18.35 270.06-17.4 270.86-16.45 272.56-15.15L272.56-15.15Q274.11-13.95 275.11-12.98 276.11-12 276.81-10.53 277.51-9.05 277.51-7.05L277.51-7.05Q277.51-3.5 275.63-1.75 273.76 0 270.36 0L270.36 0 265.51 0Z" opacity="1" transform="matrix(1,0,0,1,0,0)" fill="#000000" class="slogan-text-1" data-fill-palette-color="secondary" id="text-1"></path></svg></g></svg></g></svg></g></svg></g></svg></g><defs></defs></svg><rect width="242.03977600210914" height="280" fill="none" stroke="none" visibility="hidden"></rect></g></svg></g></svg>